<svg xmlns="http://www.w3.org/2000/svg" xmlns:xlink="http://www.w3.org/1999/xlink">
viewBox="0 0 192.756 192.756"

   <symbol id="lavazza-logo" viewBox="0 0 158.7 62.9">
      <path class="st0" d="M19.7,56v5.6h-1.6V56H16v-1.5h5.9V56H19.7z M27.3,61.7c2.2,0,3.7-1.6,3.7-3.7c0-2.1-1.4-3.7-3.6-3.7
	s-3.7,1.6-3.7,3.7C23.7,60.1,25.1,61.7,27.3,61.7 M27.3,55.8c1.1,0,1.9,0.9,1.9,2.2s-0.8,2.2-1.9,2.2s-1.9-0.9-1.9-2.2
	S26.2,55.8,27.3,55.8 M39.1,61.6l-1.7-2.7c0.8-0.5,1.2-1.2,1.2-2.1c0-1.3-0.9-2.4-3.1-2.4c-0.8,0-1.5,0-2.1,0.1v7H35v-2.3
	c0.2,0,0.4,0,0.6,0c0.1,0,0.2,0,0.3,0l1.2,2.3h2V61.6z M35.8,55.9c0.7,0,1.2,0.3,1.2,0.9c0,0.7-0.5,1.1-1.3,1.1c-0.2,0-0.3,0-0.5,0
	v-2C35.3,55.9,35.5,55.9,35.8,55.9 M41.3,61.6h1.6v-7.1h-1.6V61.6z M51.8,61.7v-7.2h-1.6v3.7L46,54.3h-0.2v7.2h1.6v-3.7l4.3,3.9
	H51.8z M58,61.7c2.2,0,3.7-1.6,3.7-3.7c0-2.1-1.4-3.7-3.6-3.7c-2.2,0-3.7,1.6-3.7,3.7C54.4,60.1,55.8,61.7,58,61.7 M58,55.8
	c1.1,0,1.9,0.9,1.9,2.2s-0.8,2.2-1.9,2.2c-1.1,0-1.9-0.9-1.9-2.2S56.9,55.8,58,55.8 M63.8,62.9c0.7-0.3,1.3-1.1,1.3-1.8
	c0-0.5-0.3-0.9-0.8-0.9c-0.4,0-0.7,0.3-0.7,0.7s0.3,0.7,0.8,0.8c-0.1,0.4-0.3,0.7-0.7,1.1L63.8,62.9 M69.1,61.6h1.6v-7.1h-1.6V61.6z
	 M78.9,56v-1.5H73V56h2.1v5.6h1.6V56H78.9z M86.4,61.6l-3.3-7.2h-0.2l-3.3,7.2h1.7l0.5-1.3h2.5l0.5,1.3H86.4z M83.7,59h-1.4l0.7-1.7
	L83.7,59z M92.9,61.6v-1.5H90v-5.6h-1.6v7.1H92.9z M95.1,61.6h1.6v-7.1h-1.6V61.6z M105.7,61.6l-3.3-7.2h-0.2l-3.3,7.2h1.7l0.5-1.3
	h2.5l0.5,1.3H105.7z M102.9,59h-1.4l0.7-1.7L102.9,59z M107.9,62.9c0.7-0.3,1.3-1.1,1.3-1.8c0-0.5-0.3-0.9-0.8-0.9
	c-0.4,0-0.7,0.3-0.7,0.7s0.3,0.7,0.8,0.8c-0.1,0.4-0.3,0.7-0.7,1.1L107.9,62.9 M115.2,61.6v-7.2h-0.6l-2.7,1l0.5,1.3l1.2-0.5v5.4
	H115.2z M120.3,61.7c1.6,0,2.6-0.9,2.6-2c0-0.7-0.3-1.4-1.2-1.7c0.6-0.3,1-0.9,1-1.6c0-1.1-0.9-2-2.4-2s-2.4,0.9-2.4,2
	c0,0.7,0.3,1.3,1,1.6c-0.8,0.3-1.2,1-1.2,1.7C117.7,60.8,118.7,61.7,120.3,61.7 M120.3,58.6c0.5,0,0.9,0.3,0.9,0.8s-0.3,0.8-0.9,0.8
	c-0.5,0-0.9-0.4-0.9-0.8C119.4,58.9,119.8,58.6,120.3,58.6 M120.3,55.8c0.6,0,0.8,0.4,0.8,0.9s-0.4,0.8-0.8,0.8
	c-0.5,0-0.8-0.3-0.8-0.8C119.5,56.1,119.8,55.8,120.3,55.8 M127.7,54.3c-1.8,0-2.7,1.3-2.7,2.5c0,1.3,0.9,2.3,2.2,2.3
	c0.5,0,0.8-0.1,1.1-0.3c-0.7,0.7-1.8,1.3-2.9,1.7l0.7,1.3c2.3-1,4.2-2.2,4.2-4.8C130.3,55.6,129.3,54.3,127.7,54.3 M127.7,58
	c-0.6,0-1-0.5-1-1.1s0.4-1.1,1-1.1c0.6,0,1,0.5,1,1.1S128.2,58,127.7,58 M134.3,61.7c2,0,3.1-1.1,3.1-2.5c0-1.2-0.8-2.2-2.4-2.2
	c-0.1,0-0.3,0-0.6,0v-1.1h2.8v-1.5h-4.4v4l0.1,0.1c0.4-0.1,1-0.2,1.4-0.2c1,0,1.5,0.5,1.5,1c0,0.6-0.5,0.9-1.5,0.9
	c-0.5,0-1-0.1-1.5-0.3l-0.3,1.4C133,61.6,133.6,61.7,134.3,61.7"/>
   <path class="st0" d="M17.8,40.3h8.6l0.9-4.1h4v4.1H40V11.9H24L17.8,40.3z M31.3,18.8v10.1h-2.7L31.3,18.8z M11.7,31.5h6l-1.9,8.7H0
   l6.4-28.3h9.8L11.7,31.5z M65.6,11.9l-6.3,28.3h-16V11.9h8.8V32l4.5-20.1H65.6z M152.4,11.9h-15.9v28.3h8.6v-4.1h4.1l0.9,4.1h8.6
   L152.4,11.9z M145.1,28.9V18.8l2.6,10.1H145.1z M133.8,31.9l1.7,8.4h-17.3L120,21h-6l-1.6-9h18.2l-2.1,19.9H133.8z M114.1,31.9
   l1.7,8.4H98.5l1.8-19.3h-6l-1.6-9h18.2l-2.1,19.9H114.1z M71.6,0l-9.1,40.3h11.2l1.3-6.9h8.8l1.3,6.9h11.1L87.1,0H71.6z M76.4,24.5
   l2.9-15.4l3,15.4H76.4z"/>
   </symbol>

   	<symbol id="globe-icon" viewBox="0 0 32 32">
	<path d="M15 2c-8.284 0-15 6.716-15 15s6.716 15 15 15c8.284 0 15-6.716 15-15s-6.716-15-15-15zM23.487 22c0.268-1.264 0.437-2.606 0.492-4h3.983c-0.104 1.381-0.426 2.722-0.959 4h-3.516zM6.513 12c-0.268 1.264-0.437 2.606-0.492 4h-3.983c0.104-1.381 0.426-2.722 0.959-4h3.516zM21.439 12c0.3 1.28 0.481 2.62 0.54 4h-5.979v-4h5.439zM16 10v-5.854c0.456 0.133 0.908 0.355 1.351 0.668 0.831 0.586 1.625 1.488 2.298 2.609 0.465 0.775 0.867 1.638 1.203 2.578h-4.852zM10.351 7.422c0.673-1.121 1.467-2.023 2.298-2.609 0.443-0.313 0.895-0.535 1.351-0.668v5.854h-4.852c0.336-0.94 0.738-1.803 1.203-2.578zM14 12v4h-5.979c0.059-1.38 0.24-2.72 0.54-4h5.439zM2.997 22c-0.533-1.278-0.854-2.619-0.959-4h3.983c0.055 1.394 0.224 2.736 0.492 4h-3.516zM8.021 18h5.979v4h-5.439c-0.3-1.28-0.481-2.62-0.54-4zM14 24v5.854c-0.456-0.133-0.908-0.355-1.351-0.668-0.831-0.586-1.625-1.488-2.298-2.609-0.465-0.775-0.867-1.638-1.203-2.578h4.852zM19.649 26.578c-0.673 1.121-1.467 2.023-2.298 2.609-0.443 0.312-0.895 0.535-1.351 0.668v-5.854h4.852c-0.336 0.94-0.738 1.802-1.203 2.578zM16 22v-4h5.979c-0.059 1.38-0.24 2.72-0.54 4h-5.439zM23.98 16c-0.055-1.394-0.224-2.736-0.492-4h3.516c0.533 1.278 0.855 2.619 0.959 4h-3.983zM25.958 10h-2.997c-0.582-1.836-1.387-3.447-2.354-4.732 1.329 0.636 2.533 1.488 3.585 2.54 0.671 0.671 1.261 1.404 1.766 2.192zM5.808 7.808c1.052-1.052 2.256-1.904 3.585-2.54-0.967 1.285-1.771 2.896-2.354 4.732h-2.997c0.504-0.788 1.094-1.521 1.766-2.192zM4.042 24h2.997c0.583 1.836 1.387 3.447 2.354 4.732-1.329-0.636-2.533-1.488-3.585-2.54-0.671-0.671-1.261-1.404-1.766-2.192zM24.192 26.192c-1.052 1.052-2.256 1.904-3.585 2.54 0.967-1.285 1.771-2.896 2.354-4.732h2.997c-0.504 0.788-1.094 1.521-1.766 2.192z"></path>
	</symbol>

    <symbol id="icon-twitter" viewBox="0 0 57 57">
       <path d="M52.837,15.065c-1.811,0.805-3.76,1.348-5.805,1.591c2.088-1.25,3.689-3.23,4.444-5.592c-1.953,1.159-4.115,2-6.418,2.454  c-1.843-1.964-4.47-3.192-7.377-3.192c-5.581,0-10.106,4.525-10.106,10.107c0,0.791,0.089,1.562,0.262,2.303  c-8.4-0.422-15.848-4.445-20.833-10.56c-0.87,1.492-1.368,3.228-1.368,5.082c0,3.506,1.784,6.6,4.496,8.412  c-1.656-0.053-3.215-0.508-4.578-1.265c-0.001,0.042-0.001,0.085-0.001,0.128c0,4.896,3.484,8.98,8.108,9.91  c-0.848,0.23-1.741,0.354-2.663,0.354c-0.652,0-1.285-0.063-1.902-0.182c1.287,4.015,5.019,6.938,9.441,7.019  c-3.459,2.711-7.816,4.327-12.552,4.327c-0.815,0-1.62-0.048-2.411-0.142c4.474,2.869,9.786,4.541,15.493,4.541  c18.591,0,28.756-15.4,28.756-28.756c0-0.438-0.009-0.875-0.028-1.309C49.769,18.873,51.483,17.092,52.837,15.065z"></path>
    </symbol>

	<symbol id="icon-facebook" viewBox="0 0 32 32" >
	<path d="M32,30c0,1.104-0.896,2-2,2H2c-1.104,0-2-0.896-2-2V2c0-1.104,0.896-2,2-2h28c1.104,0,2,0.896,2,2V30z"/><path d="M22,32V20h4l1-5h-5v-2c0-2,1.002-3,3-3h2V5c-1,0-2.24,0-4,0c-3.675,0-6,2.881-6,7v3h-4v5h4v12H22z" fill="#031B30"/></symbol>

	<svg id="icon-youtube" viewBox="0 0 32 32"><path d="M31.67,9.179c0,0-0.312-2.353-1.271-3.389c-1.217-1.358-2.58-1.366-3.205-1.443C22.717,4,16.002,4,16.002,4   h-0.015c0,0-6.715,0-11.191,0.347C4.171,4.424,2.809,4.432,1.591,5.79C0.633,6.826,0.32,9.179,0.32,9.179S0,11.94,0,14.701v2.588   c0,2.763,0.32,5.523,0.32,5.523s0.312,2.352,1.271,3.386c1.218,1.358,2.815,1.317,3.527,1.459C7.677,27.919,15.995,28,15.995,28   s6.722-0.012,11.199-0.355c0.625-0.08,1.988-0.088,3.205-1.446c0.958-1.034,1.271-3.386,1.271-3.386s0.32-2.761,0.32-5.523v-2.588   C31.99,11.94,31.67,9.179,31.67,9.179z"/><polygon fill="#031B30" points="12,10 12,22 22,16  "/></symbol>

</svg>